<svg version="1.1" id="Layer_1" xmlns="http://www.w3.org/2000/svg" xmlns:xlink="http://www.w3.org/1999/xlink" x="0px" y="0px"
	 width="100%" viewBox="0 0 512 512" enable-background="new 0 0 512 512" xml:space="preserve">
<path fill="#E2DFF4" opacity="1.000000" stroke="none" 
	d="
M482.000000,513.000000 
	C407.312439,513.000000 332.624878,513.000000 257.468658,512.531372 
	C256.989319,467.071808 256.978638,422.080963 257.387268,377.079712 
	C265.231659,377.039124 272.834198,378.041809 280.051178,376.801270 
	C312.735992,371.183105 334.628662,337.502258 327.108398,305.248657 
	C319.541779,272.796417 290.655518,253.711746 256.978149,258.445038 
	C256.974030,217.360321 256.959381,176.738373 257.415466,136.071945 
	C342.924164,136.018311 427.962067,136.009155 513.000000,136.000000 
	C513.000000,251.020889 513.000000,366.041779 512.682922,481.245422 
	C511.926544,481.888672 511.271423,482.273468 511.079498,482.820709 
	C506.267822,496.540009 496.908661,505.748108 483.440338,510.981293 
	C482.796021,511.231598 482.472748,512.308167 482.000000,513.000000 
M411.329285,258.055695 
	C386.885925,257.734009 367.927673,267.816589 356.053467,289.162323 
	C344.680328,309.607239 345.652161,330.476898 358.043579,350.320923 
	C374.997284,377.471100 412.026093,386.462006 437.106689,369.502625 
	C455.373779,357.150513 461.391266,338.552673 461.499756,317.550323 
	C461.530029,311.692078 457.049042,308.089203 450.815247,308.021698 
	C441.651672,307.922455 432.486053,307.960358 423.321655,308.005341 
	C416.023682,308.041199 411.721558,311.909485 411.831604,318.209076 
	C411.937134,324.253906 416.192230,327.936462 423.245789,327.996033 
	C428.872192,328.043549 434.499329,328.005615 440.144897,328.005615 
	C439.306427,342.298218 429.066254,354.418365 415.845551,357.159790 
	C387.914642,362.951385 362.704163,336.663727 369.560028,308.896606 
	C376.186707,282.057861 405.337799,270.014923 429.609772,284.088776 
	C435.950287,287.765259 441.746002,286.865906 444.888153,281.717865 
	C448.044312,276.546844 446.184052,270.867279 440.020325,266.994171 
	C431.531097,261.659729 422.214539,258.873352 411.329285,258.055695 
z"/>
<path fill="#F9F9F9" opacity="1.000000" stroke="none" 
	d="
M256.967926,377.090088 
	C256.978638,422.080963 256.989319,467.071808 257.000000,512.531372 
	C182.645767,513.000000 108.291542,513.000000 33.767807,512.677429 
	C33.275955,511.980774 33.018616,511.378662 32.621876,511.265503 
	C18.132475,507.134186 8.710350,497.644623 3.289016,483.809357 
	C2.982577,483.027313 1.783582,482.595062 1.000000,482.000000 
	C1.000000,366.979095 1.000000,251.958206 1.468657,136.468658 
	C72.168846,135.999985 142.400375,136.006714 212.631912,135.994553 
	C227.442245,135.991989 242.252563,135.920166 257.032043,135.938629 
	C257.001160,135.997009 256.944733,136.116425 256.944733,136.116425 
	C256.959381,176.738373 256.974030,217.360321 257.017334,258.510620 
	C257.045959,259.038971 257.058594,259.191223 256.674561,259.194702 
	C255.813263,259.343842 255.341125,259.509491 254.858109,259.632355 
	C226.881805,266.748871 207.795502,291.084473 208.395554,318.878387 
	C209.011322,347.399597 228.500488,370.598755 257.053131,376.882507 
	C257.046631,376.958801 256.967926,377.090088 256.967926,377.090088 
M59.513065,377.539764 
	C73.308701,377.576599 87.190536,378.593750 100.877106,377.390259 
	C116.322823,376.032074 127.076744,366.764069 131.627426,351.917847 
	C136.223877,336.922302 132.223526,323.680298 120.510628,312.998749 
	C119.663269,312.226013 118.686348,311.595367 117.902946,310.999939 
	C125.590851,299.040558 126.869209,287.093536 120.203522,275.078430 
	C113.429352,262.867798 102.483261,257.663513 88.651489,257.961884 
	C80.331604,258.141357 72.004250,257.941620 63.681103,258.011993 
	C56.434456,258.073242 52.373310,261.800568 52.348930,269.028381 
	C52.238873,301.657104 52.281952,334.286407 52.321751,366.915436 
	C52.327465,371.599335 54.146049,375.323700 59.513065,377.539764 
M162.189743,377.866180 
	C173.676254,377.901062 185.162857,377.980316 196.649246,377.954681 
	C203.903351,377.938507 208.372620,374.014496 208.347794,367.883820 
	C208.322815,361.714996 203.935547,357.989624 196.581726,357.961761 
	C188.968796,357.932953 181.355667,357.955383 173.452454,357.955383 
	C173.452454,355.399323 173.452576,353.411743 173.452454,351.424194 
	C173.450745,324.120117 173.495911,296.815918 173.414978,269.512085 
	C173.394165,262.488525 169.482437,258.126038 163.617584,258.011810 
	C157.595779,257.894531 153.380066,262.466034 153.365463,269.625366 
	C153.299545,301.923950 153.333771,334.222748 153.340866,366.521454 
	C153.342102,372.150604 155.752930,376.087494 162.189743,377.866180 
z"/>
<path fill="#5E69E2" opacity="1.000000" stroke="none" 
	d="
M513.000000,135.531342 
	C427.962067,136.009155 342.924164,136.018311 257.415466,136.071945 
	C256.944733,136.116425 257.001160,135.997009 257.011505,135.478897 
	C256.932251,114.198517 256.842651,93.436256 256.789124,72.262482 
	C256.856598,69.603615 256.888092,67.356247 256.952179,64.634430 
	C256.989868,43.106647 256.994934,22.053324 257.000000,1.000000 
	C331.687561,1.000000 406.375122,1.000000 481.257935,1.319772 
	C481.781006,2.013268 482.037964,2.586777 482.446899,2.731802 
	C496.369293,7.669221 505.906158,17.024565 511.074097,30.878521 
	C511.274933,31.416908 512.338440,31.633482 513.000000,32.000000 
	C513.000000,66.354225 513.000000,100.708458 513.000000,135.531342 
z"/>
<path fill="#7D81E7" opacity="1.000000" stroke="none" 
	d="
M256.531342,1.000000 
	C256.994934,22.053324 256.989868,43.106647 256.720703,64.376007 
	C254.410507,58.333851 250.237732,54.085907 243.649094,53.636089 
	C235.887817,53.106213 228.004135,52.935925 220.279800,53.693413 
	C212.234756,54.482357 206.929459,61.156441 207.003952,68.642715 
	C207.077438,76.029373 212.075928,82.014832 220.153000,83.130394 
	C226.034073,83.942665 232.071762,83.617889 238.039383,83.807388 
	C246.649811,84.080811 253.254623,80.989792 256.753082,72.673988 
	C256.842651,93.436256 256.932251,114.198517 257.042358,135.420517 
	C242.252563,135.920166 227.442245,135.991989 212.631912,135.994553 
	C142.400375,136.006714 72.168846,135.999985 1.468657,136.000000 
	C1.000000,101.645775 1.000000,67.291542 1.313516,32.752777 
	C2.067698,32.102909 2.720552,31.713428 2.917982,31.161144 
	C7.793083,17.523748 17.051960,8.244031 30.540642,3.062448 
	C31.194672,2.811206 31.521046,1.707004 32.000000,1.000000 
	C106.687561,1.000000 181.375122,1.000000 256.531342,1.000000 
M47.661522,72.495590 
	C49.902069,79.833611 55.234760,83.269775 62.532623,83.633461 
	C68.844795,83.948021 75.196442,83.937950 81.510307,83.640190 
	C90.742043,83.204826 97.248734,76.460091 96.989830,68.063454 
	C96.736160,59.836349 90.155701,53.626572 81.140045,53.367825 
	C75.149887,53.195911 69.147972,53.215073 63.156391,53.359348 
	C52.339050,53.619823 46.111134,60.950451 47.661522,72.495590 
M135.733276,54.922668 
	C129.082977,59.012093 125.987892,64.800674 127.161560,70.953896 
	C128.478775,77.859726 133.536957,82.847984 141.442505,83.402275 
	C149.037476,83.934792 156.764069,83.788170 164.341812,83.030151 
	C171.847809,82.279312 176.911438,75.910538 176.995422,68.658920 
	C177.078873,61.452034 172.141617,54.549225 164.672150,54.021839 
	C155.313446,53.361065 145.841293,54.307041 135.733276,54.922668 
z"/>
<path fill="#000000" opacity="1.000000" stroke="none" 
	d="
M1.000000,482.468658 
	C1.783582,482.595062 2.982577,483.027313 3.289016,483.809357 
	C8.710350,497.644623 18.132475,507.134186 32.621876,511.265503 
	C33.018616,511.378662 33.275955,511.980774 33.299149,512.677429 
	C22.407969,513.000000 11.815937,513.000000 1.000000,513.000000 
	C1.000000,502.980225 1.000000,492.958771 1.000000,482.468658 
z"/>
<path fill="#000000" opacity="1.000000" stroke="none" 
	d="
M482.468658,513.000000 
	C482.472748,512.308167 482.796021,511.231598 483.440338,510.981293 
	C496.908661,505.748108 506.267822,496.540009 511.079498,482.820709 
	C511.271423,482.273468 511.926544,481.888672 512.682922,481.714111 
	C513.000000,492.259857 513.000000,502.519684 513.000000,513.000000 
	C502.980194,513.000000 492.958740,513.000000 482.468658,513.000000 
z"/>
<path fill="#000000" opacity="1.000000" stroke="none" 
	d="
M513.000000,31.531345 
	C512.338440,31.633482 511.274933,31.416908 511.074097,30.878521 
	C505.906158,17.024565 496.369293,7.669221 482.446899,2.731802 
	C482.037964,2.586777 481.781006,2.013268 481.726593,1.319772 
	C492.259857,1.000000 502.519684,1.000000 513.000000,1.000000 
	C513.000000,11.019819 513.000000,21.041252 513.000000,31.531345 
z"/>
<path fill="#000000" opacity="1.000000" stroke="none" 
	d="
M31.531342,1.000000 
	C31.521046,1.707004 31.194672,2.811206 30.540642,3.062448 
	C17.051960,8.244031 7.793083,17.523748 2.917982,31.161144 
	C2.720552,31.713428 2.067698,32.102909 1.313516,32.284119 
	C1.000000,21.740147 1.000000,11.480293 1.000000,1.000000 
	C11.019819,1.000000 21.041252,1.000000 31.531342,1.000000 
z"/>
<path fill="#0B4960" opacity="1.000000" stroke="none" 
	d="
M411.796661,258.063660 
	C422.214539,258.873352 431.531097,261.659729 440.020325,266.994171 
	C446.184052,270.867279 448.044312,276.546844 444.888153,281.717865 
	C441.746002,286.865906 435.950287,287.765259 429.609772,284.088776 
	C405.337799,270.014923 376.186707,282.057861 369.560028,308.896606 
	C362.704163,336.663727 387.914642,362.951385 415.845551,357.159790 
	C429.066254,354.418365 439.306427,342.298218 440.144897,328.005615 
	C434.499329,328.005615 428.872192,328.043549 423.245789,327.996033 
	C416.192230,327.936462 411.937134,324.253906 411.831604,318.209076 
	C411.721558,311.909485 416.023682,308.041199 423.321655,308.005341 
	C432.486053,307.960358 441.651672,307.922455 450.815247,308.021698 
	C457.049042,308.089203 461.530029,311.692078 461.499756,317.550323 
	C461.391266,338.552673 455.373779,357.150513 437.106689,369.502625 
	C412.026093,386.462006 374.997284,377.471100 358.043579,350.320923 
	C345.652161,330.476898 344.680328,309.607239 356.053467,289.162323 
	C367.927673,267.816589 386.885925,257.734009 411.796661,258.063660 
z"/>
<path fill="#0A4960" opacity="1.000000" stroke="none" 
	d="
M257.006805,258.973389 
	C290.655518,253.711746 319.541779,272.796417 327.108398,305.248657 
	C334.628662,337.502258 312.735992,371.183105 280.051178,376.801270 
	C272.834198,378.041809 265.231659,377.039124 257.387268,377.079712 
	C256.967926,377.090088 257.046631,376.958801 257.038025,376.427246 
	C257.021362,369.380096 257.013245,362.864441 257.277649,356.299805 
	C257.715393,356.333984 257.880615,356.417175 258.146729,356.644623 
	C258.247620,356.788910 258.563568,356.938782 258.563568,356.938782 
	C258.563568,356.938782 258.912445,356.915039 259.346191,356.942871 
	C260.607941,357.049530 261.444031,357.079498 262.262817,357.214355 
	C278.940765,359.961304 295.571503,351.722473 303.614960,336.716492 
	C311.627106,321.768921 309.049255,302.712952 297.215668,290.558960 
	C286.606262,279.662262 273.637024,276.351471 258.731506,279.064270 
	C258.317780,279.103668 258.147430,279.244202 257.802643,279.605042 
	C257.370789,279.704498 257.186646,279.672577 257.010986,279.194702 
	C257.032562,272.229614 257.045563,265.710419 257.058594,259.191223 
	C257.058594,259.191223 257.045959,259.038971 257.006805,258.973389 
z"/>
<path fill="#0D7A9C" opacity="1.000000" stroke="none" 
	d="
M59.135612,377.377167 
	C54.146049,375.323700 52.327465,371.599335 52.321751,366.915436 
	C52.281952,334.286407 52.238873,301.657104 52.348930,269.028381 
	C52.373310,261.800568 56.434456,258.073242 63.681103,258.011993 
	C72.004250,257.941620 80.331604,258.141357 88.651489,257.961884 
	C102.483261,257.663513 113.429352,262.867798 120.203522,275.078430 
	C126.869209,287.093536 125.590851,299.040558 117.902946,310.999939 
	C118.686348,311.595367 119.663269,312.226013 120.510628,312.998749 
	C132.223526,323.680298 136.223877,336.922302 131.627426,351.917847 
	C127.076744,366.764069 116.322823,376.032074 100.877106,377.390259 
	C87.190536,378.593750 73.308701,377.576599 59.135612,377.377167 
M113.261436,339.675842 
	C112.116959,331.401001 107.487282,325.286987 99.800507,324.560699 
	C90.828377,323.712982 81.714760,324.362671 72.546402,324.362671 
	C72.546402,335.632019 72.546402,346.529724 72.546402,357.318756 
	C73.070534,357.580170 73.352341,357.842529 73.635780,357.844330 
	C80.777679,357.888885 87.920052,357.956848 95.061737,357.916321 
	C106.104416,357.853699 112.605965,351.630920 113.261436,339.675842 
M100.635414,281.899963 
	C97.994408,280.625580 95.425156,278.474457 92.698112,278.251221 
	C86.124054,277.713104 79.476189,278.076813 72.581299,278.076813 
	C72.581299,286.806946 72.581299,295.191345 72.581299,304.002716 
	C78.621635,304.002716 84.405563,303.937347 90.187332,304.021301 
	C95.847481,304.103455 100.361252,301.998688 102.897568,296.890533 
	C105.398941,291.852783 104.824875,286.896606 100.635414,281.899963 
z"/>
<path fill="#0E7A9D" opacity="1.000000" stroke="none" 
	d="
M161.771118,377.798096 
	C155.752930,376.087494 153.342102,372.150604 153.340866,366.521454 
	C153.333771,334.222748 153.299545,301.923950 153.365463,269.625366 
	C153.380066,262.466034 157.595779,257.894531 163.617584,258.011810 
	C169.482437,258.126038 173.394165,262.488525 173.414978,269.512085 
	C173.495911,296.815918 173.450745,324.120117 173.452454,351.424194 
	C173.452576,353.411743 173.452454,355.399323 173.452454,357.955383 
	C181.355667,357.955383 188.968796,357.932953 196.581726,357.961761 
	C203.935547,357.989624 208.322815,361.714996 208.347794,367.883820 
	C208.372620,374.014496 203.903351,377.938507 196.649246,377.954681 
	C185.162857,377.980316 173.676254,377.901062 161.771118,377.798096 
z"/>
<path fill="#0E7A9C" opacity="1.000000" stroke="none" 
	d="
M256.674530,259.194702 
	C257.045563,265.710419 257.032562,272.229614 257.013062,279.313904 
	C257.006561,279.878998 257.029083,280.116425 256.658936,280.066833 
	C248.236557,282.464081 241.794357,287.216766 236.675934,293.816254 
	C219.671402,315.741089 230.945251,350.092499 257.019989,355.996063 
	C257.009338,356.113342 257.005157,356.348816 257.005127,356.348816 
	C257.013245,362.864441 257.021362,369.380096 257.044556,376.350983 
	C228.500488,370.598755 209.011322,347.399597 208.395554,318.878387 
	C207.795502,291.084473 226.881805,266.748871 254.858109,259.632355 
	C255.341125,259.509491 255.813263,259.343842 256.674530,259.194702 
z"/>
<path fill="#FD80A8" opacity="1.000000" stroke="none" 
	d="
M256.789124,72.262482 
	C253.254623,80.989792 246.649811,84.080811 238.039383,83.807388 
	C232.071762,83.617889 226.034073,83.942665 220.153000,83.130394 
	C212.075928,82.014832 207.077438,76.029373 207.003952,68.642715 
	C206.929459,61.156441 212.234756,54.482357 220.279800,53.693413 
	C228.004135,52.935925 235.887817,53.106213 243.649094,53.636089 
	C250.237732,54.085907 254.410507,58.333851 256.688049,64.850464 
	C256.888092,67.356247 256.856598,69.603615 256.789124,72.262482 
z"/>
<path fill="#FDF5A0" opacity="1.000000" stroke="none" 
	d="
M47.515282,72.119576 
	C46.111134,60.950451 52.339050,53.619823 63.156391,53.359348 
	C69.147972,53.215073 75.149887,53.195911 81.140045,53.367825 
	C90.155701,53.626572 96.736160,59.836349 96.989830,68.063454 
	C97.248734,76.460091 90.742043,83.204826 81.510307,83.640190 
	C75.196442,83.937950 68.844795,83.948021 62.532623,83.633461 
	C55.234760,83.269775 49.902069,79.833611 47.515282,72.119576 
z"/>
<path fill="#90E26C" opacity="1.000000" stroke="none" 
	d="
M136.075684,54.741081 
	C145.841293,54.307041 155.313446,53.361065 164.672150,54.021839 
	C172.141617,54.549225 177.078873,61.452034 176.995422,68.658920 
	C176.911438,75.910538 171.847809,82.279312 164.341812,83.030151 
	C156.764069,83.788170 149.037476,83.934792 141.442505,83.402275 
	C133.536957,82.847984 128.478775,77.859726 127.161560,70.953896 
	C125.987892,64.800674 129.082977,59.012093 136.075684,54.741081 
z"/>
<path fill="#E1DEF4" opacity="1.000000" stroke="none" 
	d="
M258.901672,279.076416 
	C273.637024,276.351471 286.606262,279.662262 297.215668,290.558960 
	C309.049255,302.712952 311.627106,321.768921 303.614960,336.716492 
	C295.571503,351.722473 278.940765,359.961304 262.262817,357.214355 
	C261.444031,357.079498 260.607941,357.049530 259.253387,356.786865 
	C258.525055,356.402588 258.298035,356.368378 258.045807,356.500336 
	C257.880615,356.417175 257.715393,356.333984 257.277679,356.299805 
	C257.005157,356.348816 257.009338,356.113342 257.011719,355.535492 
	C257.019104,330.010559 257.024109,305.063507 257.029083,280.116425 
	C257.029083,280.116425 257.006561,279.878998 257.004517,279.759827 
	C257.186646,279.672577 257.370789,279.704498 257.977783,279.645996 
	C258.654449,279.486664 258.821472,279.326965 258.901672,279.076416 
z"/>
<path fill="#0E7A9C" opacity="1.000000" stroke="none" 
	d="
M258.731506,279.064270 
	C258.821472,279.326965 258.654449,279.486664 258.225464,279.514587 
	C258.147430,279.244202 258.317780,279.103668 258.731506,279.064270 
z"/>
<path fill="#0E7A9C" opacity="1.000000" stroke="none" 
	d="
M258.146729,356.644623 
	C258.298035,356.368378 258.525055,356.402588 258.819641,356.759003 
	C258.912445,356.915039 258.563568,356.938782 258.563568,356.938782 
	C258.563568,356.938782 258.247620,356.788910 258.146729,356.644623 
z"/>
<path fill="#F5F7F7" opacity="1.000000" stroke="none" 
	d="
M113.284943,340.116119 
	C112.605965,351.630920 106.104416,357.853699 95.061737,357.916321 
	C87.920052,357.956848 80.777679,357.888885 73.635780,357.844330 
	C73.352341,357.842529 73.070534,357.580170 72.546402,357.318756 
	C72.546402,346.529724 72.546402,335.632019 72.546402,324.362671 
	C81.714760,324.362671 90.828377,323.712982 99.800507,324.560699 
	C107.487282,325.286987 112.116959,331.401001 113.284943,340.116119 
z"/>
<path fill="#F5F7F7" opacity="1.000000" stroke="none" 
	d="
M100.890625,282.181396 
	C104.824875,286.896606 105.398941,291.852783 102.897568,296.890533 
	C100.361252,301.998688 95.847481,304.103455 90.187332,304.021301 
	C84.405563,303.937347 78.621635,304.002716 72.581299,304.002716 
	C72.581299,295.191345 72.581299,286.806946 72.581299,278.076813 
	C79.476189,278.076813 86.124054,277.713104 92.698112,278.251221 
	C95.425156,278.474457 97.994408,280.625580 100.890625,282.181396 
z"/>
<path fill="#F7F8F8" opacity="1.000000" stroke="none" 
	d="
M256.658936,280.066833 
	C257.024109,305.063507 257.019104,330.010559 257.022369,355.418213 
	C230.945251,350.092499 219.671402,315.741089 236.675934,293.816254 
	C241.794357,287.216766 248.236557,282.464081 256.658936,280.066833 
z"/>
</svg>